<svg width="608" height="144" viewBox="0 0 608 144"
  xmlns="http://www.w3.org/2000/svg">
  <path d="M10.7832 62.0164L10.7832 62.0165L10.7948 62.0201C14.494 63.1545 18.3611 63.72 22.392 63.72C27.0886 63.72 31.0545 63.0363 34.2461 61.6178L34.2462 61.6179L34.2581 61.6124C37.413 60.1602 39.8118 58.2241 41.3776 55.7721C42.9667 53.3106 43.768 50.6276 43.768 47.744C43.768 44.9715 43.1888 42.5896 41.9601 40.6621C40.8165 38.7938 39.2797 37.3103 37.3628 36.2213C35.5576 35.1688 33.5388 34.3235 31.3126 33.6802C29.1828 33.051 27.029 32.4943 24.8513 32.0101C22.7098 31.4865 20.7626 30.9639 19.0088 30.4426C17.387 29.9467 16.1042 29.2862 15.1276 28.4844C14.3085 27.7318 13.888 26.7656 13.888 25.496C13.888 24.4037 14.1856 23.4611 14.7727 22.6339C15.3982 21.8187 16.397 21.1004 17.8578 20.5243C19.3342 19.9607 21.3113 19.656 23.832 19.656C25.938 19.656 28.151 19.9764 30.4744 20.627L30.4833 20.6295L30.4924 20.6318C32.7957 21.2307 35.0366 22.1766 37.2162 23.4751L38.2166 24.0711L38.6546 22.9921L41.6066 15.7201L41.9165 14.9566L41.2263 14.5064C38.9135 12.9981 36.218 11.8545 33.1539 11.0637C30.0976 10.275 27.0137 9.88 23.904 9.88C19.2053 9.88 15.2359 10.5883 12.0411 12.0581C8.92529 13.4659 6.53024 15.4041 4.91995 17.8975L4.91994 17.8975L4.91707 17.902C3.3721 20.3224 2.59999 23.0058 2.59999 25.928C2.59999 28.7486 3.17917 31.1587 4.41329 33.0904C5.59801 34.9447 7.12325 36.4451 8.98254 37.5813L8.99633 37.5897L9.01038 37.5977C10.8517 38.6427 12.8602 39.5096 15.0328 40.2009L15.0456 40.205L15.0585 40.2087C17.2362 40.8379 19.3909 41.3947 21.5224 41.8792L21.5271 41.8802C23.6603 42.3543 25.5704 42.8736 27.2598 43.4367L27.2753 43.4419L27.291 43.4465C28.9654 43.9443 30.2682 44.6298 31.2398 45.4746L31.2494 45.4829L31.2591 45.491C32.1147 46.1978 32.552 47.1295 32.552 48.392C32.552 49.4135 32.2444 50.3263 31.6118 51.1604C30.9981 51.923 29.9855 52.6011 28.4672 53.137C26.9828 53.6609 24.9718 53.944 22.392 53.944C19.3873 53.944 16.4523 53.436 13.5824 52.4176C10.6859 51.3898 8.2913 50.1171 6.37781 48.6137L5.36879 47.8209L4.84655 48.993L1.60655 56.265L1.30013 56.9528L1.87639 57.4374C4.11757 59.322 7.10209 60.8385 10.7832 62.0164Z" />
  <path d="M59.768 62V63H60.768H70.128H71.128V62V11.6V10.6H70.128H60.768H59.768V11.6V62Z" />
  <path d="M87.128 62V63H88.128H97.416H98.416V62V30.6885L124.433 62.6315L124.733 63H125.208H132.912H133.912V62V11.6V10.6H132.912H123.624H122.624V11.6V42.9115L96.6074 10.9685L96.3072 10.6H95.832H88.128H87.128V11.6V62Z" />
  <path d="M166.815 61.7774L166.823 61.7807L166.831 61.7838C170.268 63.0787 174.013 63.72 178.056 63.72C181.709 63.72 185.311 63.1768 188.86 62.0924L188.86 62.0924L188.868 62.0898C192.48 60.9519 195.664 59.2885 198.409 57.0929L198.784 56.7926V56.312V36.224V35.224H197.784H188.928H187.928V36.224V51.3137C187.111 51.7541 186.282 52.1202 185.438 52.4132C183.241 53.145 180.949 53.512 178.56 53.512C175.98 53.512 173.658 53.0977 171.58 52.2848C169.493 51.4681 167.689 50.3166 166.158 48.8317C164.623 47.2958 163.426 45.5129 162.565 43.4758C161.755 41.4469 161.344 39.2252 161.344 36.8C161.344 34.3243 161.756 32.079 162.565 30.0522C163.426 28.0155 164.622 26.2592 166.152 24.7736C167.681 23.2896 169.508 22.1365 171.646 21.3179C173.777 20.5015 176.103 20.088 178.632 20.088C181.249 20.088 183.61 20.5466 185.728 21.4482L185.74 21.4531L185.752 21.4578C187.914 22.3137 189.938 23.6718 191.821 25.5551L192.519 26.2535L193.226 25.5638L199.13 19.8038L199.808 19.1423L199.185 18.4295C196.725 15.6187 193.69 13.4894 190.096 12.0413C186.551 10.5937 182.58 9.88 178.2 9.88C174.155 9.88 170.408 10.546 166.969 11.8905C163.54 13.1835 160.524 15.052 157.93 17.4962C155.379 19.8974 153.404 22.7491 152.007 26.0415C150.607 29.3435 149.912 32.9337 149.912 36.8C149.912 40.6663 150.607 44.2565 152.007 47.5586C153.403 50.8493 155.376 53.7221 157.923 56.1691L157.923 56.1691L157.931 56.1762C160.475 58.5705 163.439 60.437 166.815 61.7774Z" />
  <path d="M221.557 57.2351L221.561 57.2394C225.728 61.3558 231.43 63.36 238.536 63.36C245.595 63.36 251.25 61.3553 255.369 57.2369C259.55 53.1058 261.568 47.1991 261.568 39.68V11.24V10.24H260.568H251.352H250.352V11.24V39.32C250.352 44.3966 249.265 47.8578 247.311 49.9396C245.339 52.0398 242.49 53.152 238.608 53.152C234.73 53.152 231.852 52.0415 229.829 49.9357C227.877 47.8534 226.792 44.3934 226.792 39.32V11.24V10.24H225.792H216.432H215.432V11.24V39.68C215.432 47.1973 217.425 53.1033 221.557 57.2351Z" />
  <path d="M277.568 62V63H278.568H314.28H315.28V62V54.08V53.08H314.28H288.928V11.6V10.6H287.928H278.568H277.568V11.6V62Z" />
  <path d="M331.368 61.5896L330.733 63H332.28H341.928H342.588L342.847 62.3934L347.579 51.336H371.468L376.217 62.3946L376.477 63H377.136H386.928H388.477L387.839 61.5886L365.087 11.1886L364.822 10.6H364.176H354.96H354.313L354.048 11.1896L331.368 61.5896ZM359.501 23.4729L367.455 41.992H351.577L359.501 23.4729Z" />
  <path d="M403.928 62V63H404.928H414.288H415.288V62V48.312H425.664C426.159 48.312 426.648 48.3036 427.129 48.2868L437.084 62.5717L437.382 63H437.904H447.984H449.906L448.803 61.4261L437.95 45.9391C441.114 44.4417 443.599 42.3493 445.365 39.6517L445.365 39.6517L445.369 39.6448C447.216 36.7714 448.12 33.385 448.12 29.528C448.12 25.671 447.216 22.2846 445.369 19.4112C443.526 16.544 440.896 14.3593 437.523 12.8485C434.194 11.336 430.231 10.6 425.664 10.6H404.928H403.928V11.6V62ZM425.232 38.608H415.288V20.52H425.232C429.245 20.52 432.068 21.3636 433.878 22.8788L433.878 22.8788L433.887 22.886C435.724 24.3893 436.688 26.5524 436.688 29.528C436.688 32.4496 435.728 34.622 433.876 36.1786L433.876 36.1786L433.868 36.186C432.059 37.7427 429.24 38.608 425.232 38.608Z" />
  <path d="M10.7832 133.856L10.7832 133.856L10.7948 133.86C14.494 134.994 18.3611 135.56 22.392 135.56C27.0886 135.56 31.0545 134.876 34.2461 133.458L34.2462 133.458L34.2581 133.452C37.413 132 39.8118 130.064 41.3776 127.612C42.9667 125.151 43.768 122.468 43.768 119.584C43.768 116.811 43.1888 114.43 41.9601 112.502C40.8165 110.634 39.2797 109.15 37.3628 108.061C35.5576 107.009 33.5388 106.164 31.3126 105.52C29.1828 104.891 27.029 104.334 24.8513 103.85C22.7098 103.326 20.7626 102.804 19.0088 102.283C17.387 101.787 16.1042 101.126 15.1276 100.324C14.3085 99.5718 13.888 98.6056 13.888 97.336C13.888 96.2437 14.1856 95.3011 14.7727 94.4739C15.3982 93.6587 16.397 92.9404 17.8578 92.3643C19.3342 91.8007 21.3113 91.496 23.832 91.496C25.938 91.496 28.151 91.8164 30.4744 92.467L30.4833 92.4695L30.4924 92.4718C32.7957 93.0707 35.0366 94.0166 37.2162 95.3151L38.2166 95.9111L38.6546 94.8321L41.6066 87.5601L41.9165 86.7966L41.2263 86.3464C38.9135 84.8381 36.218 83.6945 33.1539 82.9037C30.0976 82.115 27.0137 81.72 23.904 81.72C19.2053 81.72 15.2359 82.4283 12.0411 83.8981C8.92529 85.3059 6.53024 87.2441 4.91995 89.7375L4.91994 89.7375L4.91707 89.742C3.3721 92.1624 2.59999 94.8458 2.59999 97.768C2.59999 100.589 3.17917 102.999 4.41329 104.93C5.59801 106.785 7.12325 108.285 8.98254 109.421L8.99633 109.43L9.01038 109.438C10.8517 110.483 12.8602 111.35 15.0328 112.041L15.0456 112.045L15.0585 112.049C17.2362 112.678 19.3909 113.235 21.5224 113.719L21.5271 113.72C23.6603 114.194 25.5704 114.714 27.2598 115.277L27.2753 115.282L27.291 115.287C28.9654 115.784 30.2682 116.47 31.2398 117.315L31.2494 117.323L31.2591 117.331C32.1147 118.038 32.552 118.97 32.552 120.232C32.552 121.254 32.2444 122.166 31.6118 123C30.9981 123.763 29.9855 124.441 28.4672 124.977C26.9828 125.501 24.9718 125.784 22.392 125.784C19.3873 125.784 16.4523 125.276 13.5824 124.258C10.6859 123.23 8.2913 121.957 6.37781 120.454L5.36879 119.661L4.84655 120.833L1.60655 128.105L1.30013 128.793L1.87639 129.277C4.11757 131.162 7.10209 132.678 10.7832 133.856Z" />
  <path d="M59.768 133.84V134.84H60.768H70.128H71.128V133.84V83.44V82.44H70.128H60.768H59.768V83.44V133.84Z" />
  <path d="M87.128 133.84V134.84H88.128H97.416H98.416V133.84V102.529L124.433 134.472L124.733 134.84H125.208H132.912H133.912V133.84V83.44V82.44H132.912H123.624H122.624V83.44V114.751L96.6074 82.8085L96.3072 82.44H95.832H88.128H87.128V83.44V133.84Z" />
  <path d="M166.815 133.617L166.823 133.621L166.831 133.624C170.268 134.919 174.013 135.56 178.056 135.56C181.709 135.56 185.311 135.017 188.86 133.932L188.86 133.932L188.868 133.93C192.48 132.792 195.664 131.128 198.409 128.933L198.784 128.633V128.152V108.064V107.064H197.784H188.928H187.928V108.064V123.154C187.111 123.594 186.282 123.96 185.438 124.253C183.241 124.985 180.949 125.352 178.56 125.352C175.98 125.352 173.658 124.938 171.58 124.125C169.493 123.308 167.689 122.157 166.158 120.672C164.623 119.136 163.426 117.353 162.565 115.316C161.755 113.287 161.344 111.065 161.344 108.64C161.344 106.164 161.756 103.919 162.565 101.892C163.426 99.8555 164.622 98.0992 166.152 96.6136C167.681 95.1296 169.508 93.9765 171.646 93.1579C173.777 92.3415 176.103 91.928 178.632 91.928C181.249 91.928 183.61 92.3866 185.728 93.2882L185.74 93.2931L185.752 93.2978C187.914 94.1537 189.938 95.5118 191.821 97.3951L192.519 98.0935L193.226 97.4038L199.13 91.6438L199.808 90.9823L199.185 90.2695C196.725 87.4587 193.69 85.3294 190.096 83.8813C186.551 82.4337 182.58 81.72 178.2 81.72C174.155 81.72 170.408 82.386 166.969 83.7305C163.54 85.0235 160.524 86.892 157.93 89.3362C155.379 91.7374 153.404 94.5891 152.007 97.8815C150.607 101.183 149.912 104.774 149.912 108.64C149.912 112.506 150.607 116.097 152.007 119.399C153.403 122.689 155.376 125.562 157.923 128.009L157.923 128.009L157.931 128.016C160.475 130.41 163.439 132.277 166.815 133.617Z" />
  <path d="M221.557 129.075L221.561 129.079C225.728 133.196 231.43 135.2 238.536 135.2C245.595 135.2 251.25 133.195 255.369 129.077C259.55 124.946 261.568 119.039 261.568 111.52V83.08V82.08H260.568H251.352H250.352V83.08V111.16C250.352 116.237 249.265 119.698 247.311 121.78C245.339 123.88 242.49 124.992 238.608 124.992C234.73 124.992 231.852 123.881 229.829 121.776C227.877 119.693 226.792 116.233 226.792 111.16V83.08V82.08H225.792H216.432H215.432V83.08V111.52C215.432 119.037 217.425 124.943 221.557 129.075Z" />
  <path d="M277.568 133.84V134.84H278.568H314.28H315.28V133.84V125.92V124.92H314.28H288.928V83.44V82.44H287.928H278.568H277.568V83.44V133.84Z" />
  <path d="M331.368 133.43L330.733 134.84H332.28H341.928H342.588L342.847 134.233L347.579 123.176H371.468L376.217 134.235L376.477 134.84H377.136H386.928H388.477L387.839 133.429L365.087 83.0286L364.822 82.44H364.176H354.96H354.313L354.048 83.0296L331.368 133.43ZM359.501 95.3129L367.455 113.832H351.577L359.501 95.3129Z" />
  <path d="M403.928 133.84V134.84H404.928H414.288H415.288V133.84V120.152H425.664C426.159 120.152 426.648 120.144 427.129 120.127L437.084 134.412L437.382 134.84H437.904H447.984H449.906L448.803 133.266L437.95 117.779C441.114 116.282 443.599 114.189 445.365 111.492L445.365 111.492L445.369 111.485C447.216 108.611 448.12 105.225 448.12 101.368C448.12 97.511 447.216 94.1246 445.369 91.2512C443.526 88.384 440.896 86.1993 437.523 84.6884C434.194 83.176 430.231 82.44 425.664 82.44H404.928H403.928V83.44V133.84ZM425.232 110.448H415.288V92.36H425.232C429.245 92.36 432.068 93.2036 433.878 94.7188L433.878 94.7188L433.887 94.726C435.724 96.2293 436.688 98.3923 436.688 101.368C436.688 104.29 435.728 106.462 433.876 108.019L433.876 108.019L433.868 108.026C432.059 109.583 429.24 110.448 425.232 110.448Z" />
  <path d="M464.984 133.84V134.84H465.984H475.344H476.344V133.84V83.44V82.44H475.344H465.984H464.984V83.44V133.84Z" />
  <path d="M509.048 133.84V134.84H510.048H519.408H520.408V133.84V92.36H536.112H537.112V91.36V83.44V82.44H536.112H493.344H492.344V83.44V91.36V92.36H493.344H509.048V133.84Z" />
  <path d="M572.912 133.84V134.84H573.912H583.272H584.272V133.84V116.361L603.856 83.9572L604.773 82.44H603H593.784H593.221L592.929 82.9209L578.895 106.026L564.977 82.924L564.685 82.44H564.12H554.112H552.339L553.256 83.9572L572.912 116.48V133.84Z" />
</svg>
